{
  "accessors": [
    {
      "bufferView": 2,
      "componentType": 5126,
      "count": 24778,
      "max": [
        0.3324914276599884,
        0.2031879723072052,
        0.5650595426559448
      ],
      "min": [
        -0.3324914276599884,
        -0.3102390468120575,
        0.3946361839771271
      ],
      "type": "VEC3"
    },
    {
      "bufferView": 2,
      "byteOffset": 297336,
      "componentType": 5126,
      "count": 24778,
      "max": [
        1.0,
        1.0,
        1.0
      ],
      "min": [
        -1.0,
        -1.0,
        -1.0
      ],
      "type": "VEC3"
    },
    {
      "bufferView": 1,
      "componentType": 5126,
      "count": 24778,
      "max": [
        0.9849331378936768,
        0.9386075139045715
      ],
      "min": [
        0.0015099340816959739,
        0.0015079955337569118
      ],
      "type": "VEC2"
    },
    {
      "bufferView": 0,
      "componentType": 5125,
      "count": 137472,
      "type": "SCALAR"
    },
    {
      "bufferView": 2,
      "byteOffset": 594672,
      "componentType": 5126,
      "count": 3647,
      "max": [
        0.020319167524576187,
        0.1565750688314438,
        0.54733806848526
      ],
      "min": [
        -0.020319167524576187,
        -0.007967580109834671,
        0.4080309271812439
      ],
      "type": "VEC3"
    },
    {
      "bufferView": 2,
      "byteOffset": 638436,
      "componentType": 5126,
      "count": 3647,
      "max": [
        0.9864987134933472,
        0.9864987730979919,
        1.0
      ],
      "min": [
        -0.9864989519119263,
        -1.0,
        -0.7945805788040161
      ],
      "type": "VEC3"
    },
    {
      "bufferView": 1,
      "byteOffset": 198224,
      "componentType": 5126,
      "count": 3647,
      "max": [
        0.8179330825805664,
        0.03972615301609039
      ],
      "min": [
        0.4032485783100128,
        0.0015156861627474427
      ],
      "type": "VEC2"
    },
    {
      "bufferView": 0,
      "byteOffset": 549888,
      "componentType": 5125,
      "count": 21024,
      "type": "SCALAR"
    },
    {
      "bufferView": 2,
      "byteOffset": 682200,
      "componentType": 5126,
      "count": 3289,
      "max": [
        0.30464911460876465,
        0.1931716501712799,
        0.5005266070365906
      ],
      "min": [
        -0.30464911460876465,
        -0.14072875678539276,
        -8.940696716308594e-08
      ],
      "type": "VEC3"
    },
    {
      "bufferView": 2,
      "byteOffset": 721668,
      "componentType": 5126,
      "count": 3289,
      "max": [
        1.0,
        1.0,
        1.0
      ],
      "min": [
        -1.0,
        -1.0,
        -1.0
      ],
      "type": "VEC3"
    },
    {
      "bufferView": 1,
      "byteOffset": 227400,
      "componentType": 5126,
      "count": 3289,
      "max": [
        0.9847560524940491,
        0.9626811742782593
      ],
      "min": [
        0.0015073713148012757,
        0.0015132274711504579
      ],
      "type": "VEC2"
    },
    {
      "bufferView": 0,
      "byteOffset": 633984,
      "componentType": 5125,
      "count": 17856,
      "type": "SCALAR"
    },
    {
      "bufferView": 2,
      "byteOffset": 761136,
      "componentType": 5126,
      "count": 2089,
      "max": [
        0.30464911460876465,
        -0.14193694293498993,
        0.5005266070365906
      ],
      "min": [
        -0.30464911460876465,
        -0.16141889989376068,
        0.3354734182357788
      ],
      "type": "VEC3"
    },
    {
      "bufferView": 2,
      "byteOffset": 786204,
      "componentType": 5126,
      "count": 2089,
      "max": [
        1.0,
        1.0,
        1.0
      ],
      "min": [
        -1.0,
        -1.0,
        -1.0
      ],
      "type": "VEC3"
    },
    {
      "bufferView": 1,
      "byteOffset": 253712,
      "componentType": 5126,
      "count": 2089,
      "max": [
        0.9981383085250854,
        0.8662927150726318
      ],
      "min": [
        0.458969384431839,
        0.20921215415000916
      ],
      "type": "VEC2"
    },
    {
      "bufferView": 0,
      "byteOffset": 705408,
      "componentType": 5125,
      "count": 11184,
      "type": "SCALAR"
    },
    {
      "bufferView": 2,
      "byteOffset": 811272,
      "componentType": 5126,
      "count": 22110,
      "max": [
        0.30464911460876465,
        -0.14193694293498993,
        0.3335648775100708
      ],
      "min": [
        -0.30464911460876465,
        -0.16141892969608307,
        -8.940696716308594e-08
      ],
      "type": "VEC3"
    },
    {
      "bufferView": 2,
      "byteOffset": 1076592,
      "componentType": 5126,
      "count": 22110,
      "max": [
        1.0,
        1.0,
        1.0
      ],
      "min": [
        -1.0,
        -1.0,
        -1.0
      ],
      "type": "VEC3"
    },
    {
      "bufferView": 1,
      "byteOffset": 270424,
      "componentType": 5126,
      "count": 22110,
      "max": [
        0.9959720373153687,
        0.9931966662406921
      ],
      "min": [
        0.0015168347163125873,
        0.06603807955980301
      ],
      "type": "VEC2"
    },
    {
      "bufferView": 0,
      "byteOffset": 750144,
      "componentType": 5125,
      "count": 124512,
      "type": "SCALAR"
    },
    {
      "bufferView": 2,
      "byteOffset": 1341912,
      "componentType": 5126,
      "count": 1296,
      "max": [
        0.10376597195863724,
        -0.14749978482723236,
        0.3335648775100708
      ],
      "min": [
        -0.10376597195863724,
        -0.16644389927387238,
        0.3065863251686096
      ],
      "type": "VEC3"
    },
    {
      "bufferView": 2,
      "byteOffset": 1357464,
      "componentType": 5126,
      "count": 1296,
      "max": [
        0.9986298084259033,
        0.999995768070221,
        1.0
      ],
      "min": [
        -0.9986291527748108,
        -0.999998927116394,
        -1.0
      ],
      "type": "VEC3"
    },
    {
      "bufferView": 1,
      "byteOffset": 447304,
      "componentType": 5126,
      "count": 1296,
      "max": [
        0.982544481754303,
        0.9860602617263794
      ],
      "min": [
        0.0015132802072912455,
        0.34457871317863464
      ],
      "type": "VEC2"
    },
    {
      "bufferView": 0,
      "byteOffset": 1248192,
      "componentType": 5125,
      "count": 6528,
      "type": "SCALAR"
    },
    {
      "bufferView": 2,
      "byteOffset": 1373016,
      "componentType": 5126,
      "count": 1171,
      "max": [
        0.34775835275650024,
        0.34775835275650024,
        0.7000977993011475
      ],
      "min": [
        -0.34775835275650024,
        -0.34775835275650024,
        9.761254477780312e-05
      ],
      "type": "VEC3"
    },
    {
      "bufferView": 2,
      "byteOffset": 1387068,
      "componentType": 5126,
      "count": 1171,
      "max": [
        0.9999993443489075,
        0.9999993443489075,
        1.0
      ],
      "min": [
        -0.9999993443489075,
        -0.9999993443489075,
        -1.0
      ],
      "type": "VEC3"
    },
    {
      "bufferView": 1,
      "byteOffset": 457672,
      "componentType": 5126,
      "count": 1171,
      "max": [
        0.5846271514892578,
        0.7180200219154358
      ],
      "min": [
        0.0015131178079172969,
        0.001508236862719059
      ],
      "type": "VEC2"
    },
    {
      "bufferView": 0,
      "byteOffset": 1274304,
      "componentType": 5125,
      "count": 6144,
      "type": "SCALAR"
    },
    {
      "bufferView": 2,
      "byteOffset": 1401120,
      "componentType": 5126,
      "count": 16196,
      "max": [
        0.4688878655433655,
        0.4688877761363983,
        3.3789894580841064
      ],
      "min": [
        -0.4688878655433655,
        -1.9905763864517212,
        2.235174406450824e-06
      ],
      "type": "VEC3"
    },
    {
      "bufferView": 2,
      "byteOffset": 1595472,
      "componentType": 5126,
      "count": 16196,
      "max": [
        1.0,
        1.0,
        1.0
      ],
      "min": [
        -1.0,
        -1.0,
        -0.9999473690986633
      ],
      "type": "VEC3"
    },
    {
      "bufferView": 1,
      "byteOffset": 467040,
      "componentType": 5126,
      "count": 16196,
      "max": [
        0.9984905123710632,
        0.9816049337387085
      ],
      "min": [
        0.001724013825878501,
        0.001510803820565343
      ],
      "type": "VEC2"
    },
    {
      "bufferView": 0,
      "byteOffset": 1298880,
      "componentType": 5125,
      "count": 86400,
      "type": "SCALAR"
    },
    {
      "bufferView": 2,
      "byteOffset": 1789824,
      "componentType": 5126,
      "count": 361,
      "max": [
        0.20681266486644745,
        -1.6276179552078247,
        1.519160509109497
      ],
      "min": [
        -0.20681263506412506,
        -1.8446353673934937,
        1.16652250289917
      ],
      "type": "VEC3"
    },
    {
      "bufferView": 2,
      "byteOffset": 1794156,
      "componentType": 5126,
      "count": 361,
      "max": [
        0.7779411673545837,
        -0.12939485907554626,
        0.33457449078559875
      ],
      "min": [
        -0.7779426574707031,
        -0.9968230724334717,
        -0.9915931224822998
      ],
      "type": "VEC3"
    },
    {
      "bufferView": 1,
      "byteOffset": 596608,
      "componentType": 5126,
      "count": 361,
      "max": [
        0.05785391107201576,
        0.5070480108261108
      ],
      "min": [
        0.0015088036889210343,
        0.44716277718544006
      ],
      "type": "VEC2"
    },
    {
      "bufferView": 0,
      "byteOffset": 1644480,
      "componentType": 5125,
      "count": 2016,
      "type": "SCALAR"
    },
    {
      "bufferView": 2,
      "byteOffset": 1798488,
      "componentType": 5126,
      "count": 750,
      "max": [
        0.3411193788051605,
        6.203830242156982,
        15.29191780090332
      ],
      "min": [
        -0.34111928939819336,
        5.5215911865234375,
        10.327600479125977
      ],
      "type": "VEC3"
    },
    {
      "bufferView": 2,
      "byteOffset": 1807488,
      "componentType": 5126,
      "count": 750,
      "max": [
        1.0,
        1.0,
        1.0
      ],
      "min": [
        -1.0,
        -1.0,
        -1.0
      ],
      "type": "VEC3"
    },
    {
      "bufferView": 1,
      "byteOffset": 599496,
      "componentType": 5126,
      "count": 750,
      "max": [
        0.8412063121795654,
        0.9461151361465454
      ],
      "min": [
        0.12856754660606384,
        0.0015339890960603952
      ],
      "type": "VEC2"
    },
    {
      "bufferView": 0,
      "byteOffset": 1652544,
      "componentType": 5125,
      "count": 3840,
      "type": "SCALAR"
    }
  ],
  "asset": {
    "extras": {
      "author": "Beer_Wizard (https://sketchfab.com/Beer_Wizard)",
      "license": "SKETCHFAB Standard (https://sketchfab.com/licenses)",
      "source": "https://sketchfab.com/3d-models/sink-0827297fcc9e455c996501f04230e820",
      "title": "Sink"
    },
    "generator": "Sketchfab-16.45.0",
    "version": "2.0"
  },
  "bufferViews": [
    {
      "buffer": 0,
      "byteLength": 1667904,
      "name": "floatBufferViews",
      "target": 34963
    },
    {
      "buffer": 0,
      "byteLength": 605496,
      "byteOffset": 1667904,
      "byteStride": 8,
      "name": "floatBufferViews",
      "target": 34962
    },
    {
      "buffer": 0,
      "byteLength": 1816488,
      "byteOffset": 2273400,
      "byteStride": 12,
      "name": "floatBufferViews",
      "target": 34962
    }
  ],
  "buffers": [
    {
      "byteLength": 4089888,
      "uri": "scene.bin"
    }
  ],
  "extensionsUsed": [
    "KHR_materials_clearcoat"
  ],
  "materials": [
    {
      "doubleSided": true,
      "extensions": {
        "KHR_materials_clearcoat": {
          "clearcoatFactor": 1.0,
          "clearcoatRoughnessFactor": 0.04
        }
      },
      "name": "Material",
      "pbrMetallicRoughness": {
        "baseColorFactor": [
          0.8,
          0.8,
          0.8,
          1.0
        ],
        "metallicFactor": 0.0,
        "roughnessFactor": 0.76
      }
    },
    {
      "doubleSided": true,
      "name": "Material.004",
      "pbrMetallicRoughness": {
        "baseColorFactor": [
          0.0,
          0.0,
          0.0,
          1.0
        ],
        "metallicFactor": 0.0
      }
    },
    {
      "doubleSided": true,
      "name": "Material.002",
      "pbrMetallicRoughness": {
        "baseColorFactor": [
          0.8,
          0.8,
          0.8,
          1.0
        ],
        "metallicFactor": 0.0
      }
    },
    {
      "doubleSided": true,
      "name": "Material.003",
      "pbrMetallicRoughness": {
        "baseColorFactor": [
          0.331759,
          0.331759,
          0.331759,
          1.0
        ],
        "metallicFactor": 0.0,
        "roughnessFactor": 0.9061910437596251
      }
    },
    {
      "doubleSided": true,
      "name": "Material.005",
      "pbrMetallicRoughness": {
        "baseColorFactor": [
          0.167311,
          0.167311,
          0.167311,
          1.0
        ],
        "metallicFactor": 0.0,
        "roughnessFactor": 0.9498067
      }
    },
    {
      "doubleSided": true,
      "name": "Material.001",
      "pbrMetallicRoughness": {
        "baseColorFactor": [
          0.0,
          0.0,
          0.0,
          1.0
        ],
        "metallicFactor": 0.0
      }
    }
  ],
  "meshes": [
    {
      "name": "sink_Material_0",
      "primitives": [
        {
          "attributes": {
            "NORMAL": 1,
            "POSITION": 0,
            "TEXCOORD_0": 2
          },
          "indices": 3,
          "material": 0,
          "mode": 4
        }
      ]
    },
    {
      "name": "sink_Material.004_0",
      "primitives": [
        {
          "attributes": {
            "NORMAL": 5,
            "POSITION": 4,
            "TEXCOORD_0": 6
          },
          "indices": 7,
          "material": 1,
          "mode": 4
        }
      ]
    },
    {
      "name": "cabinet_Material.002_0",
      "primitives": [
        {
          "attributes": {
            "NORMAL": 9,
            "POSITION": 8,
            "TEXCOORD_0": 10
          },
          "indices": 11,
          "material": 2,
          "mode": 4
        }
      ]
    },
    {
      "name": "cabinet_1_Material.002_0",
      "primitives": [
        {
          "attributes": {
            "NORMAL": 13,
            "POSITION": 12,
            "TEXCOORD_0": 14
          },
          "indices": 15,
          "material": 2,
          "mode": 4
        }
      ]
    },
    {
      "name": "door_Material.002_0",
      "primitives": [
        {
          "attributes": {
            "NORMAL": 17,
            "POSITION": 16,
            "TEXCOORD_0": 18
          },
          "indices": 19,
          "material": 2,
          "mode": 4
        }
      ]
    },
    {
      "name": "handle_Material.003_0",
      "primitives": [
        {
          "attributes": {
            "NORMAL": 21,
            "POSITION": 20,
            "TEXCOORD_0": 22
          },
          "indices": 23,
          "material": 3,
          "mode": 4
        }
      ]
    },
    {
      "name": "valve_Material.005_0",
      "primitives": [
        {
          "attributes": {
            "NORMAL": 25,
            "POSITION": 24,
            "TEXCOORD_0": 26
          },
          "indices": 27,
          "material": 4,
          "mode": 4
        }
      ]
    },
    {
      "name": "basinMixer_1_Material.005_0",
      "primitives": [
        {
          "attributes": {
            "NORMAL": 29,
            "POSITION": 28,
            "TEXCOORD_0": 30
          },
          "indices": 31,
          "material": 4,
          "mode": 4
        }
      ]
    },
    {
      "name": "basinMixer_1_Material.001_0",
      "primitives": [
        {
          "attributes": {
            "NORMAL": 33,
            "POSITION": 32,
            "TEXCOORD_0": 34
          },
          "indices": 35,
          "material": 5,
          "mode": 4
        }
      ]
    },
    {
      "name": "basinMixer_Material.005_0",
      "primitives": [
        {
          "attributes": {
            "NORMAL": 37,
            "POSITION": 36,
            "TEXCOORD_0": 38
          },
          "indices": 39,
          "material": 4,
          "mode": 4
        }
      ]
    }
  ],
  "nodes": [
    {
      "children": [
        1
      ],
      "matrix": [
        2.0709805488586426,
        0.0,
        0.0,
        0.0,
        0.0,
        4.598500577787418e-16,
        -2.0709805488586426,
        0.0,
        0.0,
        2.0709805488586426,
        4.598500577787418e-16,
        0.0,
        0.0,
        0.0,
        0.0,
        1.0
      ],
      "name": "Sketchfab_model"
    },
    {
      "children": [
        2
      ],
      "matrix": [
        0.009999999776482582,
        0.0,
        0.0,
        0.0,
        0.0,
        0.0,
        0.009999999776482582,
        0.0,
        0.0,
        -0.009999999776482582,
        0.0,
        0.0,
        0.0,
        0.0,
        0.0,
        1.0
      ],
      "name": "c20eecce19e44947b1bdd35fd68e0564.fbx"
    },
    {
      "children": [
        3,
        6,
        8,
        10,
        12,
        14,
        16,
        19
      ],
      "name": "RootNode"
    },
    {
      "children": [
        4,
        5
      ],
      "matrix": [
        100.0,
        0.0,
        0.0,
        0.0,
        0.0,
        -1.629206793918314e-05,
        -99.99999999999868,
        0.0,
        0.0,
        99.99999999999868,
        -1.629206793918314e-05,
        0.0,
        0.0,
        0.0,
        0.0,
        1.0
      ],
      "name": "sink"
    },
    {
      "mesh": 0,
      "name": "sink_Material_0"
    },
    {
      "mesh": 1,
      "name": "sink_Material.004_0"
    },
    {
      "children": [
        7
      ],
      "matrix": [
        100.0,
        0.0,
        0.0,
        0.0,
        0.0,
        -1.629206793918314e-05,
        -99.99999999999868,
        0.0,
        0.0,
        99.99999999999868,
        -1.629206793918314e-05,
        0.0,
        0.0,
        0.0,
        0.0,
        1.0
      ],
      "name": "cabinet"
    },
    {
      "mesh": 2,
      "name": "cabinet_Material.002_0"
    },
    {
      "children": [
        9
      ],
      "matrix": [
        100.0,
        0.0,
        0.0,
        0.0,
        0.0,
        -1.629206793918314e-05,
        -99.99999999999868,
        0.0,
        0.0,
        99.99999999999868,
        -1.629206793918314e-05,
        0.0,
        0.0,
        0.0,
        0.0,
        1.0
      ],
      "name": "cabinet_1"
    },
    {
      "mesh": 3,
      "name": "cabinet_1_Material.002_0"
    },
    {
      "children": [
        11
      ],
      "matrix": [
        100.0,
        0.0,
        0.0,
        0.0,
        0.0,
        -1.629206793918314e-05,
        -99.99999999999868,
        0.0,
        0.0,
        99.99999999999868,
        -1.629206793918314e-05,
        0.0,
        0.0,
        0.0,
        0.0,
        1.0
      ],
      "name": "door"
    },
    {
      "mesh": 4,
      "name": "door_Material.002_0"
    },
    {
      "children": [
        13
      ],
      "matrix": [
        100.0,
        0.0,
        0.0,
        0.0,
        0.0,
        -1.629206793918314e-05,
        -99.99999999999868,
        0.0,
        0.0,
        99.99999999999868,
        -1.629206793918314e-05,
        0.0,
        0.0,
        0.0,
        0.0,
        1.0
      ],
      "name": "handle"
    },
    {
      "mesh": 5,
      "name": "handle_Material.003_0"
    },
    {
      "children": [
        15
      ],
      "matrix": [
        6.555959701538086,
        0.0,
        0.0,
        0.0,
        0.0,
        -1.0681014086400533e-06,
        -6.555959701537999,
        0.0,
        0.0,
        0.5609616041183397,
        -9.13922456556927e-08,
        0.0,
        7.08615033317983e-08,
        42.125022888183594,
        -1.2351595163345337,
        1.0
      ],
      "name": "valve"
    },
    {
      "mesh": 6,
      "name": "valve_Material.005_0"
    },
    {
      "children": [
        17,
        18
      ],
      "matrix": [
        4.86812162399292,
        0.0,
        0.0,
        0.0,
        0.0,
        -7.931176823429922e-07,
        -4.868121623992856,
        0.0,
        0.0,
        4.868121623992856,
        -7.931176823429922e-07,
        0.0,
        5.044664774800367e-08,
        56.509483337402344,
        -13.927210807800293,
        1.0
      ],
      "name": "basinMixer_1"
    },
    {
      "mesh": 7,
      "name": "basinMixer_1_Material.005_0"
    },
    {
      "mesh": 8,
      "name": "basinMixer_1_Material.001_0"
    },
    {
      "children": [
        20
      ],
      "matrix": [
        1.3472185134887695,
        0.0,
        0.0,
        0.0,
        0.0,
        0.6661893696534521,
        -1.1709781244965953,
        0.0,
        0.0,
        1.1709781244965953,
        0.6661893696534521,
        0.0,
        5.044664774800367e-08,
        56.509483337402344,
        -13.927210807800293,
        1.0
      ],
      "name": "basinMixer"
    },
    {
      "mesh": 9,
      "name": "basinMixer_Material.005_0"
    }
  ],
  "scene": 0,
  "scenes": [
    {
      "name": "Sketchfab_Scene",
      "nodes": [
        0
      ]
    }
  ]
}
