{
  "accessors": [
    {
      "bufferView": 2,
      "componentType": 5126,
      "count": 378,
      "max": [
        1.1101319789886475,
        0.6335440278053284,
        0.6787829995155334
      ],
      "min": [
        0.7859470248222351,
        0.4958980083465576,
        0.36444398760795593
      ],
      "type": "VEC3"
    },
    {
      "bufferView": 2,
      "byteOffset": 4536,
      "componentType": 5126,
      "count": 378,
      "max": [
        1.0,
        1.0,
        1.0
      ],
      "min": [
        -1.0,
        -1.0,
        -1.0
      ],
      "type": "VEC3"
    },
    {
      "bufferView": 1,
      "componentType": 5126,
      "count": 378,
      "max": [
        0.9896849989891052,
        0.9955750107765198
      ],
      "min": [
        0.009429999627172947,
        0.006622999906539917
      ],
      "type": "VEC2"
    },
    {
      "bufferView": 0,
      "componentType": 5125,
      "count": 933,
      "type": "SCALAR"
    },
    {
      "bufferView": 2,
      "byteOffset": 9072,
      "componentType": 5126,
      "count": 632,
      "max": [
        1.1377350091934204,
        0.5007489919662476,
        0.8345170021057129
      ],
      "min": [
        0.7963680028915405,
        0.010119999758899212,
        0.3671489953994751
      ],
      "type": "VEC3"
    },
    {
      "bufferView": 2,
      "byteOffset": 16656,
      "componentType": 5126,
      "count": 632,
      "max": [
        1.0,
        1.0,
        0.9737312197685242
      ],
      "min": [
        -1.0,
        -1.0,
        -1.0
      ],
      "type": "VEC3"
    },
    {
      "bufferView": 1,
      "byteOffset": 3024,
      "componentType": 5126,
      "count": 632,
      "max": [
        1.9562000036239624,
        0.9621000289916992
      ],
      "min": [
        0.02019999921321869,
        0.007300000172108412
      ],
      "type": "VEC2"
    },
    {
      "bufferView": 0,
      "byteOffset": 3732,
      "componentType": 5125,
      "count": 1968,
      "type": "SCALAR"
    },
    {
      "bufferView": 2,
      "byteOffset": 24240,
      "componentType": 5126,
      "count": 634,
      "max": [
        2.142258882522583,
        0.5101000070571899,
        0.8369460105895996
      ],
      "min": [
        1.7998989820480347,
        0.018042000010609627,
        0.36821699142456055
      ],
      "type": "VEC3"
    },
    {
      "bufferView": 2,
      "byteOffset": 31848,
      "componentType": 5126,
      "count": 634,
      "max": [
        1.0,
        1.0,
        0.9737312197685242
      ],
      "min": [
        -1.0,
        -1.0,
        -1.0
      ],
      "type": "VEC3"
    },
    {
      "bufferView": 1,
      "byteOffset": 8080,
      "componentType": 5126,
      "count": 634,
      "max": [
        1.9562000036239624,
        0.9621000289916992
      ],
      "min": [
        0.02019999921321869,
        0.007300000172108412
      ],
      "type": "VEC2"
    },
    {
      "bufferView": 0,
      "byteOffset": 11604,
      "componentType": 5125,
      "count": 1968,
      "type": "SCALAR"
    },
    {
      "bufferView": 2,
      "byteOffset": 39456,
      "componentType": 5126,
      "count": 410,
      "max": [
        1.1547939777374268,
        0.6182219982147217,
        0.41522300243377686
      ],
      "min": [
        0.7793099880218506,
        -0.013627000153064728,
        0.0
      ],
      "type": "VEC3"
    },
    {
      "bufferView": 2,
      "byteOffset": 44376,
      "componentType": 5126,
      "count": 410,
      "max": [
        1.0,
        1.0,
        1.0
      ],
      "min": [
        -1.0,
        -1.0,
        -1.0
      ],
      "type": "VEC3"
    },
    {
      "bufferView": 1,
      "byteOffset": 13152,
      "componentType": 5126,
      "count": 410,
      "max": [
        0.9890999794006348,
        0.9749000072479248
      ],
      "min": [
        0.01759999990463257,
        0.008999999612569809
      ],
      "type": "VEC2"
    },
    {
      "bufferView": 0,
      "byteOffset": 19476,
      "componentType": 5125,
      "count": 1650,
      "type": "SCALAR"
    },
    {
      "bufferView": 2,
      "byteOffset": 49296,
      "componentType": 5126,
      "count": 410,
      "max": [
        2.1593680381774902,
        0.6279150247573853,
        0.4164319932460785
      ],
      "min": [
        1.782789945602417,
        -0.005772999953478575,
        0.0
      ],
      "type": "VEC3"
    },
    {
      "bufferView": 2,
      "byteOffset": 54216,
      "componentType": 5126,
      "count": 410,
      "max": [
        1.0,
        1.0,
        1.0
      ],
      "min": [
        -1.0,
        -1.0,
        -1.0
      ],
      "type": "VEC3"
    },
    {
      "bufferView": 1,
      "byteOffset": 16432,
      "componentType": 5126,
      "count": 410,
      "max": [
        0.9890999794006348,
        0.9749000072479248
      ],
      "min": [
        0.01759999990463257,
        0.008999999612569809
      ],
      "type": "VEC2"
    },
    {
      "bufferView": 0,
      "byteOffset": 26076,
      "componentType": 5125,
      "count": 1650,
      "type": "SCALAR"
    },
    {
      "bufferView": 2,
      "byteOffset": 59136,
      "componentType": 5126,
      "count": 753,
      "max": [
        3.091671943664551,
        0.606069028377533,
        0.8378520011901855
      ],
      "min": [
        2.7252728939056396,
        -0.02194100059568882,
        0.0
      ],
      "type": "VEC3"
    },
    {
      "bufferView": 2,
      "byteOffset": 68172,
      "componentType": 5126,
      "count": 753,
      "max": [
        1.0,
        1.0,
        1.0
      ],
      "min": [
        -1.0,
        -1.0,
        -1.0
      ],
      "type": "VEC3"
    },
    {
      "bufferView": 1,
      "byteOffset": 19712,
      "componentType": 5126,
      "count": 753,
      "max": [
        0.9767749905586243,
        0.9784539937973022
      ],
      "min": [
        0.01278700027614832,
        0.023072000592947006
      ],
      "type": "VEC2"
    },
    {
      "bufferView": 0,
      "byteOffset": 32676,
      "componentType": 5125,
      "count": 2331,
      "type": "SCALAR"
    },
    {
      "bufferView": 2,
      "byteOffset": 77208,
      "componentType": 5126,
      "count": 378,
      "max": [
        2.1152451038360596,
        0.6432819962501526,
        0.6807590126991272
      ],
      "min": [
        1.7901159524917603,
        0.5052340030670166,
        0.36550500988960266
      ],
      "type": "VEC3"
    },
    {
      "bufferView": 2,
      "byteOffset": 81744,
      "componentType": 5126,
      "count": 378,
      "max": [
        1.0,
        1.0,
        1.0
      ],
      "min": [
        -1.0,
        -1.0,
        -1.0
      ],
      "type": "VEC3"
    },
    {
      "bufferView": 1,
      "byteOffset": 25736,
      "componentType": 5126,
      "count": 378,
      "max": [
        0.9896849989891052,
        0.9955750107765198
      ],
      "min": [
        0.009429999627172947,
        0.006622999906539917
      ],
      "type": "VEC2"
    },
    {
      "bufferView": 0,
      "byteOffset": 42000,
      "componentType": 5125,
      "count": 933,
      "type": "SCALAR"
    },
    {
      "bufferView": 2,
      "byteOffset": 86280,
      "componentType": 5126,
      "count": 378,
      "max": [
        3.040041923522949,
        0.6170920133590698,
        0.6690800189971924
      ],
      "min": [
        2.743997097015381,
        0.49139299988746643,
        0.38202500343322754
      ],
      "type": "VEC3"
    },
    {
      "bufferView": 2,
      "byteOffset": 90816,
      "componentType": 5126,
      "count": 378,
      "max": [
        1.0,
        1.0,
        1.0
      ],
      "min": [
        -1.0,
        -1.0,
        -1.0
      ],
      "type": "VEC3"
    },
    {
      "bufferView": 1,
      "byteOffset": 28760,
      "componentType": 5126,
      "count": 378,
      "max": [
        0.9896849989891052,
        0.9955750107765198
      ],
      "min": [
        0.009429999627172947,
        0.006622999906539917
      ],
      "type": "VEC2"
    },
    {
      "bufferView": 0,
      "byteOffset": 45732,
      "componentType": 5125,
      "count": 933,
      "type": "SCALAR"
    },
    {
      "bufferView": 2,
      "byteOffset": 95352,
      "componentType": 5126,
      "count": 5636,
      "max": [
        3.3939709663391113,
        0.624118983745575,
        2.2269270420074463
      ],
      "min": [
        -2.3693289756774902,
        -1.4012930393218994,
        -0.08806200325489044
      ],
      "type": "VEC3"
    },
    {
      "bufferView": 2,
      "byteOffset": 162984,
      "componentType": 5126,
      "count": 5636,
      "max": [
        1.0,
        1.0,
        1.0
      ],
      "min": [
        -1.0,
        -1.0,
        -1.0
      ],
      "type": "VEC3"
    },
    {
      "bufferView": 1,
      "byteOffset": 31784,
      "componentType": 5126,
      "count": 5636,
      "max": [
        1.0,
        0.5825369954109192
      ],
      "min": [
        0.011780000291764736,
        0.01953200064599514
      ],
      "type": "VEC2"
    },
    {
      "bufferView": 0,
      "byteOffset": 49464,
      "componentType": 5125,
      "count": 14256,
      "type": "SCALAR"
    },
    {
      "bufferView": 2,
      "byteOffset": 230616,
      "componentType": 5126,
      "count": 1910,
      "max": [
        0.1991170048713684,
        0.49213701486587524,
        0.844668984413147
      ],
      "min": [
        -2.013416051864624,
        -0.004461999982595444,
        0.3716149926185608
      ],
      "type": "VEC3"
    },
    {
      "bufferView": 2,
      "byteOffset": 253536,
      "componentType": 5126,
      "count": 1910,
      "max": [
        1.0,
        1.0,
        0.9737312197685242
      ],
      "min": [
        -1.0,
        -1.0,
        -1.0
      ],
      "type": "VEC3"
    },
    {
      "bufferView": 1,
      "byteOffset": 76872,
      "componentType": 5126,
      "count": 1910,
      "max": [
        1.9562000036239624,
        0.9621000289916992
      ],
      "min": [
        0.02019999921321869,
        0.007300000172108412
      ],
      "type": "VEC2"
    },
    {
      "bufferView": 0,
      "byteOffset": 106488,
      "componentType": 5125,
      "count": 5904,
      "type": "SCALAR"
    },
    {
      "bufferView": 2,
      "byteOffset": 276456,
      "componentType": 5126,
      "count": 1230,
      "max": [
        0.21638299524784088,
        0.6110380291938782,
        0.4202750027179718
      ],
      "min": [
        -2.03068208694458,
        -0.02849699929356575,
        0.0
      ],
      "type": "VEC3"
    },
    {
      "bufferView": 2,
      "byteOffset": 291216,
      "componentType": 5126,
      "count": 1230,
      "max": [
        1.0,
        1.0,
        1.0
      ],
      "min": [
        -1.0,
        -1.0,
        -1.0
      ],
      "type": "VEC3"
    },
    {
      "bufferView": 1,
      "byteOffset": 92152,
      "componentType": 5126,
      "count": 1230,
      "max": [
        0.9890999794006348,
        0.9749000072479248
      ],
      "min": [
        0.01759999990463257,
        0.008999999612569809
      ],
      "type": "VEC2"
    },
    {
      "bufferView": 0,
      "byteOffset": 130104,
      "componentType": 5125,
      "count": 4950,
      "type": "SCALAR"
    },
    {
      "bufferView": 2,
      "byteOffset": 305976,
      "componentType": 5126,
      "count": 1812,
      "max": [
        0.11322800070047379,
        0.6000459790229797,
        0.6055039763450623
      ],
      "min": [
        -1.9385939836502075,
        0.49015098810195923,
        0.3829509913921356
      ],
      "type": "VEC3"
    },
    {
      "bufferView": 2,
      "byteOffset": 327720,
      "componentType": 5126,
      "count": 1812,
      "max": [
        1.0,
        1.0,
        1.0
      ],
      "min": [
        -1.0,
        -1.0,
        -1.0
      ],
      "type": "VEC3"
    },
    {
      "bufferView": 1,
      "byteOffset": 101992,
      "componentType": 5126,
      "count": 1812,
      "max": [
        0.9963070154190063,
        0.9815970063209534
      ],
      "min": [
        0.013763999566435814,
        0.013732999563217163
      ],
      "type": "VEC2"
    },
    {
      "bufferView": 0,
      "byteOffset": 149904,
      "componentType": 5125,
      "count": 5040,
      "type": "SCALAR"
    },
    {
      "bufferView": 2,
      "byteOffset": 349464,
      "componentType": 5126,
      "count": 2121,
      "max": [
        0.15695999562740326,
        -3.160830020904541,
        1.1931869983673096
      ],
      "min": [
        -7.1705169677734375,
        -3.7601709365844727,
        0.6571440100669861
      ],
      "type": "VEC3"
    },
    {
      "bufferView": 2,
      "byteOffset": 374916,
      "componentType": 5126,
      "count": 2121,
      "max": [
        0.9998270869255066,
        0.9470813274383545,
        1.0
      ],
      "min": [
        -0.9998270869255066,
        -1.0,
        -1.0
      ],
      "type": "VEC3"
    },
    {
      "bufferView": 1,
      "byteOffset": 116488,
      "componentType": 5126,
      "count": 2121,
      "max": [
        0.974943995475769,
        0.9751880168914795
      ],
      "min": [
        0.0334790013730526,
        0.015838999301195145
      ],
      "type": "VEC2"
    },
    {
      "bufferView": 0,
      "byteOffset": 170064,
      "componentType": 5125,
      "count": 5754,
      "type": "SCALAR"
    },
    {
      "bufferView": 2,
      "byteOffset": 400368,
      "componentType": 5126,
      "count": 6240,
      "max": [
        -2.699596881866455,
        0.0050050001591444016,
        1.4550060033798218
      ],
      "min": [
        -6.899106025695801,
        -0.30159300565719604,
        0.3926849961280823
      ],
      "type": "VEC3"
    },
    {
      "bufferView": 2,
      "byteOffset": 475248,
      "componentType": 5126,
      "count": 6240,
      "max": [
        1.0,
        1.0,
        1.0
      ],
      "min": [
        -1.0,
        -1.0,
        -1.0
      ],
      "type": "VEC3"
    },
    {
      "bufferView": 1,
      "byteOffset": 133456,
      "componentType": 5126,
      "count": 6240,
      "max": [
        0.9963070154190063,
        0.9815970063209534
      ],
      "min": [
        0.00802600011229515,
        0.013732999563217163
      ],
      "type": "VEC2"
    },
    {
      "bufferView": 0,
      "byteOffset": 193080,
      "componentType": 5125,
      "count": 22248,
      "type": "SCALAR"
    }
  ],
  "asset": {
    "extras": {
      "author": "Yaiyeondurising (https://sketchfab.com/5Life)",
      "license": "CC-BY-SA-4.0 (http://creativecommons.org/licenses/by-sa/4.0/)",
      "source": "https://sketchfab.com/3d-models/sims-style-basic-public-toilet-set-43b122833da4454f96225a0d25d0bbcb",
      "title": "Sims Style Basic Public Toilet Set"
    },
    "generator": "Sketchfab-12.68.0",
    "version": "2.0"
  },
  "bufferViews": [
    {
      "buffer": 0,
      "byteLength": 282072,
      "name": "floatBufferViews",
      "target": 34963
    },
    {
      "buffer": 0,
      "byteLength": 183376,
      "byteOffset": 282072,
      "byteStride": 8,
      "name": "floatBufferViews",
      "target": 34962
    },
    {
      "buffer": 0,
      "byteLength": 550128,
      "byteOffset": 465448,
      "byteStride": 12,
      "name": "floatBufferViews",
      "target": 34962
    }
  ],
  "buffers": [
    {
      "byteLength": 1015576,
      "uri": "scene.bin"
    }
  ],
  "materials": [
    {
      "doubleSided": true,
      "name": "11___Default.000",
      "pbrMetallicRoughness": {
        "metallicFactor": 0.0,
        "roughnessFactor": 0.6
      }
    },
    {
      "doubleSided": true,
      "name": "11___Default.001",
      "pbrMetallicRoughness": {
        "metallicFactor": 0.0,
        "roughnessFactor": 0.6
      }
    },
    {
      "doubleSided": true,
      "name": "11___Default.003",
      "pbrMetallicRoughness": {
        "metallicFactor": 0.0,
        "roughnessFactor": 0.6
      }
    },
    {
      "doubleSided": true,
      "name": "12___Default.001",
      "pbrMetallicRoughness": {
        "metallicFactor": 0.0,
        "roughnessFactor": 0.6
      }
    },
    {
      "doubleSided": true,
      "name": "12___Default.002",
      "pbrMetallicRoughness": {
        "metallicFactor": 0.0,
        "roughnessFactor": 0.6
      }
    },
    {
      "doubleSided": true,
      "name": "12___Default.004",
      "pbrMetallicRoughness": {
        "metallicFactor": 0.0,
        "roughnessFactor": 0.6
      }
    },
    {
      "doubleSided": true,
      "name": "DIFFUSE.000",
      "pbrMetallicRoughness": {
        "metallicFactor": 0.0,
        "roughnessFactor": 0.6
      }
    },
    {
      "doubleSided": true,
      "name": "DIFFUSE.001",
      "pbrMetallicRoughness": {
        "metallicFactor": 0.0,
        "roughnessFactor": 0.6
      }
    },
    {
      "doubleSided": true,
      "name": "DIFFUSE.004",
      "pbrMetallicRoughness": {
        "metallicFactor": 0.0,
        "roughnessFactor": 0.6
      }
    },
    {
      "doubleSided": true,
      "name": "DIFFUSE.007",
      "pbrMetallicRoughness": {
        "metallicFactor": 0.0,
        "roughnessFactor": 0.6
      }
    },
    {
      "doubleSided": true,
      "name": "DIFFUSE.008",
      "pbrMetallicRoughness": {
        "metallicFactor": 0.0,
        "roughnessFactor": 0.6
      }
    },
    {
      "doubleSided": true,
      "name": "DIFFUSE.010",
      "pbrMetallicRoughness": {
        "metallicFactor": 0.0,
        "roughnessFactor": 0.6
      }
    },
    {
      "doubleSided": true,
      "name": "DIFFUSE.011",
      "pbrMetallicRoughness": {
        "metallicFactor": 0.0,
        "roughnessFactor": 0.6
      }
    },
    {
      "doubleSided": true,
      "name": "DIFFUSE.012",
      "pbrMetallicRoughness": {
        "metallicFactor": 0.0,
        "roughnessFactor": 0.6
      }
    }
  ],
  "meshes": [
    {
      "name": "Object_0",
      "primitives": [
        {
          "attributes": {
            "NORMAL": 1,
            "POSITION": 0,
            "TEXCOORD_0": 2
          },
          "indices": 3,
          "material": 6,
          "mode": 4
        }
      ]
    },
    {
      "name": "Object_1",
      "primitives": [
        {
          "attributes": {
            "NORMAL": 5,
            "POSITION": 4,
            "TEXCOORD_0": 6
          },
          "indices": 7,
          "material": 1,
          "mode": 4
        }
      ]
    },
    {
      "name": "Object_2",
      "primitives": [
        {
          "attributes": {
            "NORMAL": 9,
            "POSITION": 8,
            "TEXCOORD_0": 10
          },
          "indices": 11,
          "material": 2,
          "mode": 4
        }
      ]
    },
    {
      "name": "Object_3",
      "primitives": [
        {
          "attributes": {
            "NORMAL": 13,
            "POSITION": 12,
            "TEXCOORD_0": 14
          },
          "indices": 15,
          "material": 3,
          "mode": 4
        }
      ]
    },
    {
      "name": "Object_4",
      "primitives": [
        {
          "attributes": {
            "NORMAL": 17,
            "POSITION": 16,
            "TEXCOORD_0": 18
          },
          "indices": 19,
          "material": 5,
          "mode": 4
        }
      ]
    },
    {
      "name": "Object_5",
      "primitives": [
        {
          "attributes": {
            "NORMAL": 21,
            "POSITION": 20,
            "TEXCOORD_0": 22
          },
          "indices": 23,
          "material": 11,
          "mode": 4
        }
      ]
    },
    {
      "name": "Object_6",
      "primitives": [
        {
          "attributes": {
            "NORMAL": 25,
            "POSITION": 24,
            "TEXCOORD_0": 26
          },
          "indices": 27,
          "material": 8,
          "mode": 4
        }
      ]
    },
    {
      "name": "Object_7",
      "primitives": [
        {
          "attributes": {
            "NORMAL": 29,
            "POSITION": 28,
            "TEXCOORD_0": 30
          },
          "indices": 31,
          "material": 9,
          "mode": 4
        }
      ]
    },
    {
      "name": "Object_8",
      "primitives": [
        {
          "attributes": {
            "NORMAL": 33,
            "POSITION": 32,
            "TEXCOORD_0": 34
          },
          "indices": 35,
          "material": 7,
          "mode": 4
        }
      ]
    },
    {
      "name": "Object_9",
      "primitives": [
        {
          "attributes": {
            "NORMAL": 37,
            "POSITION": 36,
            "TEXCOORD_0": 38
          },
          "indices": 39,
          "material": 0,
          "mode": 4
        }
      ]
    },
    {
      "name": "Object_10",
      "primitives": [
        {
          "attributes": {
            "NORMAL": 41,
            "POSITION": 40,
            "TEXCOORD_0": 42
          },
          "indices": 43,
          "material": 4,
          "mode": 4
        }
      ]
    },
    {
      "name": "Object_11",
      "primitives": [
        {
          "attributes": {
            "NORMAL": 45,
            "POSITION": 44,
            "TEXCOORD_0": 46
          },
          "indices": 47,
          "material": 10,
          "mode": 4
        }
      ]
    },
    {
      "name": "Object_12",
      "primitives": [
        {
          "attributes": {
            "NORMAL": 49,
            "POSITION": 48,
            "TEXCOORD_0": 50
          },
          "indices": 51,
          "material": 13,
          "mode": 4
        }
      ]
    },
    {
      "name": "Object_13",
      "primitives": [
        {
          "attributes": {
            "NORMAL": 53,
            "POSITION": 52,
            "TEXCOORD_0": 54
          },
          "indices": 55,
          "material": 12,
          "mode": 4
        }
      ]
    }
  ],
  "nodes": [
    {
      "children": [
        1
      ],
      "matrix": [
        0.8216884732246399,
        0.0,
        0.0,
        0.0,
        0.0,
        1.8245149240861733e-16,
        -0.8216884732246399,
        0.0,
        0.0,
        0.8216884732246399,
        1.8245149240861733e-16,
        0.0,
        0.0,
        0.0,
        0.0,
        1.0
      ],
      "name": "Sketchfab_model"
    },
    {
      "children": [
        2,
        3,
        4,
        5,
        6,
        7,
        8,
        9,
        10,
        11,
        12,
        13,
        14,
        15
      ],
      "name": "Basic Public Toilet set.obj.cleaner.materialmerger.gles"
    },
    {
      "mesh": 0,
      "name": "Object_2"
    },
    {
      "mesh": 1,
      "name": "Object_3"
    },
    {
      "mesh": 2,
      "name": "Object_4"
    },
    {
      "mesh": 3,
      "name": "Object_5"
    },
    {
      "mesh": 4,
      "name": "Object_6"
    },
    {
      "mesh": 5,
      "name": "Object_7"
    },
    {
      "mesh": 6,
      "name": "Object_8"
    },
    {
      "mesh": 7,
      "name": "Object_9"
    },
    {
      "mesh": 8,
      "name": "Object_10"
    },
    {
      "mesh": 9,
      "name": "Object_11"
    },
    {
      "mesh": 10,
      "name": "Object_12"
    },
    {
      "mesh": 11,
      "name": "Object_13"
    },
    {
      "mesh": 12,
      "name": "Object_14"
    },
    {
      "mesh": 13,
      "name": "Object_15"
    }
  ],
  "scene": 0,
  "scenes": [
    {
      "name": "Sketchfab_Scene",
      "nodes": [
        0
      ]
    }
  ]
}
