{
  "accessors": [
    {
      "bufferView": 2,
      "componentType": 5126,
      "count": 956,
      "max": [
        1.0905476808547974,
        4.617363452911377,
        0.45871448516845703
      ],
      "min": [
        -1.0905476808547974,
        -1.5320634841918945,
        -0.6305375695228577
      ],
      "type": "VEC3"
    },
    {
      "bufferView": 2,
      "byteOffset": 11472,
      "componentType": 5126,
      "count": 956,
      "max": [
        0.9994185566902161,
        0.9999977350234985,
        0.9999433755874634
      ],
      "min": [
        -0.9994185566902161,
        -1.0,
        -0.9999939203262329
      ],
      "type": "VEC3"
    },
    {
      "bufferView": 1,
      "componentType": 5126,
      "count": 956,
      "max": [
        0.8905467987060547,
        1.0
      ],
      "min": [
        0.10803037881851196,
        0.0
      ],
      "type": "VEC2"
    },
    {
      "bufferView": 0,
      "componentType": 5125,
      "count": 4482,
      "type": "SCALAR"
    }
  ],
  "asset": {
    "extras": {
      "author": "Gwen Dalmacio (https://sketchfab.com/kgdalmacio)",
      "license": "CC-BY-4.0 (http://creativecommons.org/licenses/by/4.0/)",
      "source": "https://sketchfab.com/3d-models/base-male-model-wip-ca14bde4ad58474793e54d3c63ce42e2",
      "title": "Base Male Model WIP"
    },
    "generator": "Sketchfab-14.1.0",
    "version": "2.0"
  },
  "bufferViews": [
    {
      "buffer": 0,
      "byteLength": 17928,
      "name": "floatBufferViews",
      "target": 34963
    },
    {
      "buffer": 0,
      "byteLength": 7648,
      "byteOffset": 17928,
      "byteStride": 8,
      "name": "floatBufferViews",
      "target": 34962
    },
    {
      "buffer": 0,
      "byteLength": 22944,
      "byteOffset": 25576,
      "byteStride": 12,
      "name": "floatBufferViews",
      "target": 34962
    }
  ],
  "buffers": [
    {
      "byteLength": 48520,
      "uri": "scene.bin"
    }
  ],
  "materials": [
    {
      "doubleSided": true,
      "name": "lambert1",
      "pbrMetallicRoughness": {
        "baseColorFactor": [
          0.5,
          0.5,
          0.5,
          1.0
        ],
        "metallicFactor": 0.0,
        "roughnessFactor": 0.6
      }
    }
  ],
  "meshes": [
    {
      "name": "pCube7_lambert1_0",
      "primitives": [
        {
          "attributes": {
            "NORMAL": 1,
            "POSITION": 0,
            "TEXCOORD_0": 2
          },
          "indices": 3,
          "material": 0,
          "mode": 4
        }
      ]
    }
  ],
  "nodes": [
    {
      "children": [
        1
      ],
      "matrix": [
        1.0,
        0.0,
        0.0,
        0.0,
        0.0,
        2.220446049250313e-16,
        -1.0,
        0.0,
        0.0,
        1.0,
        2.220446049250313e-16,
        0.0,
        0.0,
        0.0,
        0.0,
        1.0
      ],
      "name": "Sketchfab_model"
    },
    {
      "children": [
        2
      ],
      "matrix": [
        1.0,
        0.0,
        0.0,
        0.0,
        0.0,
        0.0,
        1.0,
        0.0,
        0.0,
        -1.0,
        0.0,
        0.0,
        0.0,
        0.0,
        0.0,
        1.0
      ],
      "name": "6af172b57c0d46478db8cfea4f58fd58.fbx"
    },
    {
      "children": [
        3
      ],
      "name": "RootNode"
    },
    {
      "children": [
        4
      ],
      "matrix": [
        1.0,
        0.0,
        0.0,
        0.0,
        0.0,
        1.0,
        0.0,
        0.0,
        0.0,
        0.0,
        1.0,
        0.0,
        0.0,
        2.1408493518829346,
        0.0,
        1.0
      ],
      "name": "pCube7"
    },
    {
      "mesh": 0,
      "name": "pCube7_lambert1_0"
    }
  ],
  "scene": 0,
  "scenes": [
    {
      "name": "Sketchfab_Scene",
      "nodes": [
        0
      ]
    }
  ]
}
