{
  "accessors": [
    {
      "bufferView": 2,
      "componentType": 5126,
      "count": 939,
      "max": [
        0.5225099921226501,
        0.624118983745575,
        2.210875988006592
      ],
      "min": [
        -0.5023940205574036,
        -1.395198941230774,
        -0.08806200325489044
      ],
      "type": "VEC3"
    },
    {
      "bufferView": 2,
      "byteOffset": 11268,
      "componentType": 5126,
      "count": 939,
      "max": [
        1.0,
        1.0,
        1.0
      ],
      "min": [
        -1.0,
        -1.0,
        -1.0
      ],
      "type": "VEC3"
    },
    {
      "bufferView": 1,
      "componentType": 5126,
      "count": 939,
      "max": [
        1.0,
        0.5825369954109192
      ],
      "min": [
        0.011780000291764736,
        0.01953200064599514
      ],
      "type": "VEC2"
    },
    {
      "bufferView": 0,
      "componentType": 5125,
      "count": 2376,
      "type": "SCALAR"
    }
  ],
  "asset": {
    "extras": {
      "author": "Yaiyeondurising (https://sketchfab.com/5Life)",
      "license": "CC-BY-SA-4.0 (http://creativecommons.org/licenses/by-sa/4.0/)",
      "source": "https://sketchfab.com/3d-models/cubicle-without-toilet-114a3170351f413e8af4b0e596237dac",
      "title": "Cubicle Without Toilet"
    },
    "generator": "Sketchfab-12.68.0",
    "version": "2.0"
  },
  "bufferViews": [
    {
      "buffer": 0,
      "byteLength": 9504,
      "name": "floatBufferViews",
      "target": 34963
    },
    {
      "buffer": 0,
      "byteLength": 7512,
      "byteOffset": 9504,
      "byteStride": 8,
      "name": "floatBufferViews",
      "target": 34962
    },
    {
      "buffer": 0,
      "byteLength": 22536,
      "byteOffset": 17016,
      "byteStride": 12,
      "name": "floatBufferViews",
      "target": 34962
    }
  ],
  "buffers": [
    {
      "byteLength": 39552,
      "uri": "scene.bin"
    }
  ],
  "materials": [
    {
      "doubleSided": true,
      "name": "DIFFUSE.001",
      "pbrMetallicRoughness": {
        "metallicFactor": 0.0,
        "roughnessFactor": 0.6
      }
    }
  ],
  "meshes": [
    {
      "name": "Object_0",
      "primitives": [
        {
          "attributes": {
            "NORMAL": 1,
            "POSITION": 0,
            "TEXCOORD_0": 2
          },
          "indices": 3,
          "material": 0,
          "mode": 4
        }
      ]
    }
  ],
  "nodes": [
    {
      "children": [
        1
      ],
      "matrix": [
        1.0402300357818604,
        0.0,
        0.0,
        0.0,
        0.0,
        2.3097746732633436e-16,
        -1.0402300357818604,
        0.0,
        0.0,
        1.0402300357818604,
        2.3097746732633436e-16,
        0.0,
        0.0,
        0.0,
        0.0,
        1.0
      ],
      "name": "Sketchfab_model"
    },
    {
      "children": [
        2
      ],
      "name": "66d8491fee9d4b8dae30435b415f8ef5.obj.cleaner.materialmerger.gles"
    },
    {
      "mesh": 0,
      "name": "Object_2"
    }
  ],
  "scene": 0,
  "scenes": [
    {
      "name": "Sketchfab_Scene",
      "nodes": [
        0
      ]
    }
  ]
}
