{
  "accessors": [
    {
      "bufferView": 1,
      "componentType": 5126,
      "count": 48,
      "max": [
        108.07038879394531,
        -9.825502395629883,
        162.85276794433594
      ],
      "min": [
        -61.584171295166016,
        -13.143902778625488,
        -7.754772186279297
      ],
      "type": "VEC3"
    },
    {
      "bufferView": 1,
      "byteOffset": 576,
      "componentType": 5126,
      "count": 48,
      "max": [
        0.9999918937683105,
        1.0,
        1.0
      ],
      "min": [
        -0.9999918937683105,
        -1.0,
        -1.0
      ],
      "type": "VEC3"
    },
    {
      "bufferView": 0,
      "componentType": 5125,
      "count": 72,
      "type": "SCALAR"
    },
    {
      "bufferView": 1,
      "byteOffset": 1152,
      "componentType": 5126,
      "count": 1536,
      "max": [
        133.28594970703125,
        2.922935962677002,
        188.62448120117188
      ],
      "min": [
        -86.35928344726563,
        -25.478857040405273,
        -21.352313995361328
      ],
      "type": "VEC3"
    },
    {
      "bufferView": 1,
      "byteOffset": 19584,
      "componentType": 5126,
      "count": 1536,
      "max": [
        1.0,
        1.0,
        1.0
      ],
      "min": [
        -1.0,
        -1.0,
        -1.0
      ],
      "type": "VEC3"
    },
    {
      "bufferView": 0,
      "byteOffset": 288,
      "componentType": 5125,
      "count": 4236,
      "type": "SCALAR"
    },
    {
      "bufferView": 1,
      "byteOffset": 38016,
      "componentType": 5126,
      "count": 260,
      "max": [
        110.08839416503906,
        -21.020645141601563,
        73.16361236572266
      ],
      "min": [
        -64.60707092285156,
        -23.73663902282715,
        70.44768524169922
      ],
      "type": "VEC3"
    },
    {
      "bufferView": 1,
      "byteOffset": 41136,
      "componentType": 5126,
      "count": 260,
      "max": [
        1.0,
        0.9994620084762573,
        0.999463677406311
      ],
      "min": [
        -1.0,
        -0.9994429349899292,
        -0.999463677406311
      ],
      "type": "VEC3"
    },
    {
      "bufferView": 0,
      "byteOffset": 17232,
      "componentType": 5125,
      "count": 768,
      "type": "SCALAR"
    }
  ],
  "asset": {
    "extras": {
      "author": "1-3D.com (https://sketchfab.com/1-3D.com)",
      "license": "CC-BY-SA-4.0 (http://creativecommons.org/licenses/by-sa/4.0/)",
      "source": "https://sketchfab.com/3d-models/emergency-glass-double-door-bdfe83823bd145c6a9642f5d31963b96",
      "title": "Emergency glass double door"
    },
    "generator": "Sketchfab-12.73.0",
    "version": "2.0"
  },
  "bufferViews": [
    {
      "buffer": 0,
      "byteLength": 20304,
      "name": "floatBufferViews",
      "target": 34963
    },
    {
      "buffer": 0,
      "byteLength": 44256,
      "byteOffset": 20304,
      "byteStride": 12,
      "name": "floatBufferViews",
      "target": 34962
    }
  ],
  "buffers": [
    {
      "byteLength": 64560,
      "uri": "scene.bin"
    }
  ],
  "materials": [
    {
      "alphaMode": "BLEND",
      "doubleSided": true,
      "name": "Glass",
      "pbrMetallicRoughness": {
        "baseColorFactor": [
          0.166275,
          0.166275,
          0.166275,
          0.505883
        ],
        "metallicFactor": 0.0,
        "roughnessFactor": 0.9674706560539248
      }
    },
    {
      "doubleSided": true,
      "name": "frame",
      "pbrMetallicRoughness": {
        "baseColorFactor": [
          0.3136,
          0.313587,
          0.313587,
          1.0
        ],
        "metallicFactor": 0.0,
        "roughnessFactor": 0.8844008116791958
      }
    },
    {
      "doubleSided": true,
      "name": "silver_spraypaint",
      "pbrMetallicRoughness": {
        "baseColorFactor": [
          0.673628,
          0.673628,
          0.673628,
          1.0
        ],
        "metallicFactor": 0.0,
        "roughnessFactor": 0.8905030648452579
      }
    }
  ],
  "meshes": [
    {
      "name": "Object_0",
      "primitives": [
        {
          "attributes": {
            "NORMAL": 1,
            "POSITION": 0
          },
          "indices": 2,
          "material": 0,
          "mode": 4
        }
      ]
    },
    {
      "name": "Object_1",
      "primitives": [
        {
          "attributes": {
            "NORMAL": 4,
            "POSITION": 3
          },
          "indices": 5,
          "material": 1,
          "mode": 4
        }
      ]
    },
    {
      "name": "Object_2",
      "primitives": [
        {
          "attributes": {
            "NORMAL": 7,
            "POSITION": 6
          },
          "indices": 8,
          "material": 2,
          "mode": 4
        }
      ]
    }
  ],
  "nodes": [
    {
      "children": [
        1
      ],
      "matrix": [
        1.0,
        0.0,
        0.0,
        0.0,
        0.0,
        2.220446049250313e-16,
        -1.0,
        0.0,
        0.0,
        1.0,
        2.220446049250313e-16,
        0.0,
        0.0,
        0.0,
        0.0,
        1.0
      ],
      "name": "Sketchfab_model"
    },
    {
      "children": [
        2,
        3,
        4
      ],
      "name": "emergencyGlassDoubleDoor.obj.cleaner.materialmerger.gles"
    },
    {
      "mesh": 0,
      "name": "Object_2"
    },
    {
      "mesh": 1,
      "name": "Object_3"
    },
    {
      "mesh": 2,
      "name": "Object_4"
    }
  ],
  "scene": 0,
  "scenes": [
    {
      "name": "Sketchfab_Scene",
      "nodes": [
        0
      ]
    }
  ]
}
