{
  "accessors": [
    {
      "bufferView": 2,
      "componentType": 5126,
      "count": 1854,
      "max": [
        1.1344382762908936,
        1.0147842168807983,
        3.403657913208008
      ],
      "min": [
        -1.1344382762908936,
        -0.7483384609222412,
        -2.324709892272949
      ],
      "type": "VEC3"
    },
    {
      "bufferView": 2,
      "byteOffset": 22248,
      "componentType": 5126,
      "count": 1854,
      "max": [
        1.0,
        1.0,
        1.0
      ],
      "min": [
        -1.0,
        -1.0,
        -1.0
      ],
      "type": "VEC3"
    },
    {
      "bufferView": 3,
      "componentType": 5126,
      "count": 1854,
      "max": [
        1.0,
        1.0,
        0.9998304843902588,
        1.0
      ],
      "min": [
        -1.0,
        -1.0,
        -1.0,
        1.0
      ],
      "type": "VEC4"
    },
    {
      "bufferView": 1,
      "componentType": 5126,
      "count": 1854,
      "max": [
        0.9927487373352051,
        0.9884934425354004
      ],
      "min": [
        0.007226042449474335,
        0.012275585904717445
      ],
      "type": "VEC2"
    },
    {
      "bufferView": 0,
      "componentType": 5125,
      "count": 6492,
      "type": "SCALAR"
    }
  ],
  "asset": {
    "extras": {
      "author": "Tsawodi (https://sketchfab.com/Tsawodi)",
      "license": "CC-BY-4.0 (http://creativecommons.org/licenses/by/4.0/)",
      "source": "https://sketchfab.com/3d-models/urinal-toilet-1386789c080d44e5b4953c2b8b2492cc",
      "title": "Urinal Toilet"
    },
    "generator": "Sketchfab-15.1.0",
    "version": "2.0"
  },
  "bufferViews": [
    {
      "buffer": 0,
      "byteLength": 25968,
      "name": "floatBufferViews",
      "target": 34963
    },
    {
      "buffer": 0,
      "byteLength": 14832,
      "byteOffset": 25968,
      "byteStride": 8,
      "name": "floatBufferViews",
      "target": 34962
    },
    {
      "buffer": 0,
      "byteLength": 44496,
      "byteOffset": 40800,
      "byteStride": 12,
      "name": "floatBufferViews",
      "target": 34962
    },
    {
      "buffer": 0,
      "byteLength": 29664,
      "byteOffset": 85296,
      "byteStride": 16,
      "name": "floatBufferViews",
      "target": 34962
    }
  ],
  "buffers": [
    {
      "byteLength": 114960,
      "uri": "scene.bin"
    }
  ],
  "images": [
    {
      "uri": "textures/UrinalCyclesMat_baseColor.png"
    },
    {
      "uri": "textures/UrinalCyclesMat_metallicRoughness.png"
    },
    {
      "uri": "textures/UrinalCyclesMat_normal.png"
    }
  ],
  "materials": [
    {
      "doubleSided": true,
      "name": "UrinalCyclesMat",
      "normalTexture": {
        "index": 2
      },
      "occlusionTexture": {
        "index": 1
      },
      "pbrMetallicRoughness": {
        "baseColorTexture": {
          "index": 0
        },
        "metallicRoughnessTexture": {
          "index": 1
        }
      }
    }
  ],
  "meshes": [
    {
      "name": "UrinalExportOLD_UrinalCyclesMat_0",
      "primitives": [
        {
          "attributes": {
            "NORMAL": 1,
            "POSITION": 0,
            "TANGENT": 2,
            "TEXCOORD_0": 3
          },
          "indices": 4,
          "material": 0,
          "mode": 4
        }
      ]
    }
  ],
  "nodes": [
    {
      "children": [
        1
      ],
      "matrix": [
        1.0,
        0.0,
        0.0,
        0.0,
        0.0,
        2.220446049250313e-16,
        -1.0,
        0.0,
        0.0,
        1.0,
        2.220446049250313e-16,
        0.0,
        0.0,
        0.0,
        0.0,
        1.0
      ],
      "name": "Sketchfab_model"
    },
    {
      "children": [
        2
      ],
      "matrix": [
        1.0,
        0.0,
        0.0,
        0.0,
        0.0,
        0.0,
        1.0,
        0.0,
        0.0,
        -1.0,
        0.0,
        0.0,
        0.0,
        0.0,
        0.0,
        1.0
      ],
      "name": "21989f47183b4e5aa585da7e3cdf6a5d.fbx"
    },
    {
      "children": [
        3
      ],
      "name": "RootNode"
    },
    {
      "children": [
        4
      ],
      "matrix": [
        100.0,
        0.0,
        0.0,
        0.0,
        -0.0,
        -1.629206793918314e-05,
        -99.99999999999868,
        0.0,
        0.0,
        99.99999999999868,
        -1.629206793918314e-05,
        0.0,
        -86.52713775634766,
        490.4283447265625,
        736.6431274414063,
        1.0
      ],
      "name": "UrinalExportOLD"
    },
    {
      "mesh": 0,
      "name": "UrinalExportOLD_UrinalCyclesMat_0"
    }
  ],
  "samplers": [
    {
      "magFilter": 9729,
      "minFilter": 9987,
      "wrapS": 10497,
      "wrapT": 10497
    }
  ],
  "scene": 0,
  "scenes": [
    {
      "name": "Sketchfab_Scene",
      "nodes": [
        0
      ]
    }
  ],
  "textures": [
    {
      "sampler": 0,
      "source": 0
    },
    {
      "sampler": 0,
      "source": 1
    },
    {
      "sampler": 0,
      "source": 2
    }
  ]
}
