{
  "accessors": [
    {
      "bufferView": 2,
      "componentType": 5126,
      "count": 4905,
      "max": [
        0.8944855332374573,
        1.1479134559631348,
        1.5508593320846558
      ],
      "min": [
        -1.839603304862976,
        -1.2248679399490356,
        -1.7197855710983276
      ],
      "type": "VEC3"
    },
    {
      "bufferView": 2,
      "byteOffset": 58860,
      "componentType": 5126,
      "count": 4905,
      "max": [
        1.0,
        1.0,
        1.0
      ],
      "min": [
        -1.0,
        -1.0,
        -1.0
      ],
      "type": "VEC3"
    },
    {
      "bufferView": 3,
      "componentType": 5126,
      "count": 4905,
      "max": [
        1.0,
        1.0,
        1.0,
        1.0
      ],
      "min": [
        -1.0,
        -1.0,
        -1.0,
        -1.0
      ],
      "type": "VEC4"
    },
    {
      "bufferView": 1,
      "componentType": 5126,
      "count": 4905,
      "max": [
        0.997967541217804,
        0.9944808483123779
      ],
      "min": [
        0.0025743581354618073,
        0.0014168331399559975
      ],
      "type": "VEC2"
    },
    {
      "bufferView": 1,
      "byteOffset": 39240,
      "componentType": 5126,
      "count": 4905,
      "max": [
        0.997967541217804,
        0.9944808483123779
      ],
      "min": [
        0.0025743581354618073,
        0.0014168331399559975
      ],
      "type": "VEC2"
    },
    {
      "bufferView": 1,
      "byteOffset": 78480,
      "componentType": 5126,
      "count": 4905,
      "max": [
        0.997967541217804,
        0.9944808483123779
      ],
      "min": [
        0.0025743581354618073,
        0.0014168331399559975
      ],
      "type": "VEC2"
    },
    {
      "bufferView": 0,
      "componentType": 5125,
      "count": 21726,
      "type": "SCALAR"
    }
  ],
  "asset": {
    "extras": {
      "author": "ecjhr0awipso (https://sketchfab.com/ecjhr0awipso)",
      "license": "SKETCHFAB Standard (https://sketchfab.com/licenses)",
      "source": "https://sketchfab.com/3d-models/toilet-f4d2db1700f64d04be3e090716911475",
      "title": "Toilet"
    },
    "generator": "Sketchfab-16.53.0",
    "version": "2.0"
  },
  "bufferViews": [
    {
      "buffer": 0,
      "byteLength": 86904,
      "name": "floatBufferViews",
      "target": 34963
    },
    {
      "buffer": 0,
      "byteLength": 117720,
      "byteOffset": 86904,
      "byteStride": 8,
      "name": "floatBufferViews",
      "target": 34962
    },
    {
      "buffer": 0,
      "byteLength": 117720,
      "byteOffset": 204624,
      "byteStride": 12,
      "name": "floatBufferViews",
      "target": 34962
    },
    {
      "buffer": 0,
      "byteLength": 78480,
      "byteOffset": 322344,
      "byteStride": 16,
      "name": "floatBufferViews",
      "target": 34962
    }
  ],
  "buffers": [
    {
      "byteLength": 400824,
      "uri": "scene.bin"
    }
  ],
  "extensionsUsed": [
    "KHR_materials_specular"
  ],
  "images": [
    {
      "uri": "textures/Material_baseColor.png"
    },
    {
      "uri": "textures/Material_metallicRoughness.png"
    },
    {
      "uri": "textures/Material_normal.png"
    }
  ],
  "materials": [
    {
      "doubleSided": true,
      "extensions": {
        "KHR_materials_specular": {
          "specularColorFactor": [
            1.0,
            1.0,
            1.0
          ],
          "specularFactor": 1.0
        }
      },
      "name": "Material",
      "normalTexture": {
        "index": 2
      },
      "pbrMetallicRoughness": {
        "baseColorTexture": {
          "index": 0
        },
        "metallicRoughnessTexture": {
          "index": 1
        }
      }
    }
  ],
  "meshes": [
    {
      "name": "Daska_Material_0",
      "primitives": [
        {
          "attributes": {
            "NORMAL": 1,
            "POSITION": 0,
            "TANGENT": 2,
            "TEXCOORD_0": 3,
            "TEXCOORD_1": 4,
            "TEXCOORD_2": 5
          },
          "indices": 6,
          "material": 0,
          "mode": 4
        }
      ]
    }
  ],
  "nodes": [
    {
      "children": [
        1
      ],
      "matrix": [
        1.0,
        0.0,
        0.0,
        0.0,
        0.0,
        2.220446049250313e-16,
        -1.0,
        0.0,
        0.0,
        1.0,
        2.220446049250313e-16,
        0.0,
        0.0,
        0.0,
        0.0,
        1.0
      ],
      "name": "Sketchfab_model"
    },
    {
      "children": [
        2
      ],
      "matrix": [
        0.009999999776482582,
        0.0,
        0.0,
        0.0,
        0.0,
        0.0,
        0.009999999776482582,
        0.0,
        0.0,
        -0.009999999776482582,
        0.0,
        0.0,
        0.0,
        0.0,
        0.0,
        1.0
      ],
      "name": "394f64d59c274dea924e22000d721846.fbx"
    },
    {
      "children": [
        3
      ],
      "name": "RootNode"
    },
    {
      "children": [
        4
      ],
      "matrix": [
        -32.353244781493764,
        -4.885204049189634e-06,
        0.0,
        0.0,
        -1.6191212164659387e-13,
        1.072295537722454e-06,
        -24.531261444091772,
        0.0,
        4.8852040491896295e-06,
        -32.35324478149374,
        -1.4142053024506756e-06,
        0.0,
        0.0,
        -1.4311730861663818,
        0.0,
        1.0
      ],
      "name": "Daska"
    },
    {
      "mesh": 0,
      "name": "Daska_Material_0"
    }
  ],
  "samplers": [
    {
      "magFilter": 9729,
      "minFilter": 9987,
      "wrapS": 10497,
      "wrapT": 10497
    }
  ],
  "scene": 0,
  "scenes": [
    {
      "name": "Sketchfab_Scene",
      "nodes": [
        0
      ]
    }
  ],
  "textures": [
    {
      "sampler": 0,
      "source": 0
    },
    {
      "sampler": 0,
      "source": 1
    },
    {
      "sampler": 0,
      "source": 2
    }
  ]
}
