{
  "accessors": [
    {
      "bufferView": 2,
      "componentType": 5126,
      "count": 5776,
      "max": [
        1.1215022802352905,
        0.27905336022377014,
        0.8308650851249695
      ],
      "min": [
        -1.1215014457702637,
        -1.7376545667648315,
        -1.3854420185089111
      ],
      "type": "VEC3"
    },
    {
      "bufferView": 2,
      "byteOffset": 69312,
      "componentType": 5126,
      "count": 5776,
      "max": [
        1.0,
        1.0,
        1.0
      ],
      "min": [
        -1.0,
        -1.0,
        -1.0
      ],
      "type": "VEC3"
    },
    {
      "bufferView": 3,
      "componentType": 5126,
      "count": 5776,
      "max": [
        1.0,
        1.0,
        0.9999852776527405,
        1.0
      ],
      "min": [
        -0.9999980330467224,
        -0.9999991059303284,
        -0.9999856352806091,
        -1.0
      ],
      "type": "VEC4"
    },
    {
      "bufferView": 1,
      "componentType": 5126,
      "count": 5776,
      "max": [
        0.9972569346427917,
        0.9951502680778503
      ],
      "min": [
        0.002743056043982506,
        0.002743056043982506
      ],
      "type": "VEC2"
    },
    {
      "bufferView": 1,
      "byteOffset": 46208,
      "componentType": 5126,
      "count": 5776,
      "max": [
        0.9972569346427917,
        0.9951502680778503
      ],
      "min": [
        0.002743056043982506,
        0.002743056043982506
      ],
      "type": "VEC2"
    },
    {
      "bufferView": 1,
      "byteOffset": 92416,
      "componentType": 5126,
      "count": 5776,
      "max": [
        0.9972569346427917,
        0.9951502680778503
      ],
      "min": [
        0.002743056043982506,
        0.002743056043982506
      ],
      "type": "VEC2"
    },
    {
      "bufferView": 0,
      "componentType": 5125,
      "count": 29466,
      "type": "SCALAR"
    }
  ],
  "asset": {
    "extras": {
      "author": "patrakeevasveta (https://sketchfab.com/patrakeevasveta)",
      "license": "CC-BY-4.0 (http://creativecommons.org/licenses/by/4.0/)",
      "source": "https://sketchfab.com/3d-models/kitchen-sink-39f1b3daf1ac4defa85194f2dc6b8ec4",
      "title": "Kitchen sink"
    },
    "generator": "Sketchfab-15.17.0",
    "version": "2.0"
  },
  "bufferViews": [
    {
      "buffer": 0,
      "byteLength": 117864,
      "name": "floatBufferViews",
      "target": 34963
    },
    {
      "buffer": 0,
      "byteLength": 138624,
      "byteOffset": 117864,
      "byteStride": 8,
      "name": "floatBufferViews",
      "target": 34962
    },
    {
      "buffer": 0,
      "byteLength": 138624,
      "byteOffset": 256488,
      "byteStride": 12,
      "name": "floatBufferViews",
      "target": 34962
    },
    {
      "buffer": 0,
      "byteLength": 92416,
      "byteOffset": 395112,
      "byteStride": 16,
      "name": "floatBufferViews",
      "target": 34962
    }
  ],
  "buffers": [
    {
      "byteLength": 487528,
      "uri": "scene.bin"
    }
  ],
  "images": [
    {
      "uri": "textures/kitchen_sink_baseColor.jpeg"
    },
    {
      "uri": "textures/kitchen_sink_metallicRoughness.png"
    },
    {
      "uri": "textures/kitchen_sink_normal.png"
    }
  ],
  "materials": [
    {
      "doubleSided": true,
      "name": "kitchen_sink",
      "normalTexture": {
        "index": 2
      },
      "pbrMetallicRoughness": {
        "baseColorTexture": {
          "index": 0
        },
        "metallicRoughnessTexture": {
          "index": 1
        }
      }
    }
  ],
  "meshes": [
    {
      "name": "kitchen sink_kitchen sink_0",
      "primitives": [
        {
          "attributes": {
            "NORMAL": 1,
            "POSITION": 0,
            "TANGENT": 2,
            "TEXCOORD_0": 3,
            "TEXCOORD_1": 4,
            "TEXCOORD_2": 5
          },
          "indices": 6,
          "material": 0,
          "mode": 4
        }
      ]
    }
  ],
  "nodes": [
    {
      "children": [
        1
      ],
      "matrix": [
        0.0024175201542675495,
        0.0,
        0.0,
        0.0,
        0.0,
        5.367973075526388e-19,
        -0.0024175201542675495,
        0.0,
        0.0,
        0.0024175201542675495,
        5.367973075526388e-19,
        0.0,
        0.0,
        0.0,
        0.0,
        1.0
      ],
      "name": "Sketchfab_model"
    },
    {
      "children": [
        2
      ],
      "matrix": [
        1.0,
        0.0,
        0.0,
        0.0,
        0.0,
        0.0,
        1.0,
        0.0,
        0.0,
        -1.0,
        0.0,
        0.0,
        0.0,
        0.0,
        0.0,
        1.0
      ],
      "name": "kitchen sink.fbx"
    },
    {
      "children": [
        3
      ],
      "name": "RootNode"
    },
    {
      "children": [
        4
      ],
      "matrix": [
        100.0,
        0.0,
        0.0,
        0.0,
        0.0,
        -1.629206793918314e-05,
        -99.99999999999868,
        0.0,
        0.0,
        99.99999999999868,
        -1.629206793918314e-05,
        0.0,
        0.0,
        137.8228759765625,
        0.0,
        1.0
      ],
      "name": "kitchen sink"
    },
    {
      "mesh": 0,
      "name": "kitchen sink_kitchen sink_0"
    }
  ],
  "samplers": [
    {
      "magFilter": 9729,
      "minFilter": 9987,
      "wrapS": 10497,
      "wrapT": 10497
    }
  ],
  "scene": 0,
  "scenes": [
    {
      "name": "Sketchfab_Scene",
      "nodes": [
        0
      ]
    }
  ],
  "textures": [
    {
      "sampler": 0,
      "source": 0
    },
    {
      "sampler": 0,
      "source": 1
    },
    {
      "sampler": 0,
      "source": 2
    }
  ]
}
