{
  "accessors": [
    {
      "bufferView": 2,
      "componentType": 5126,
      "count": 14901,
      "max": [
        1.2725948095321655,
        4.1574296951293945,
        3.3409857749938965
      ],
      "min": [
        -1.013906717300415,
        -4.341747283935547,
        -3.3461880683898926
      ],
      "type": "VEC3"
    },
    {
      "bufferView": 2,
      "byteOffset": 178812,
      "componentType": 5126,
      "count": 14901,
      "max": [
        1.0,
        1.0,
        1.0
      ],
      "min": [
        -1.0,
        -1.0,
        -1.0
      ],
      "type": "VEC3"
    },
    {
      "bufferView": 3,
      "componentType": 5126,
      "count": 14901,
      "max": [
        1.0,
        1.0,
        1.0,
        1.0
      ],
      "min": [
        -1.0,
        -1.0,
        -1.0,
        -1.0
      ],
      "type": "VEC4"
    },
    {
      "bufferView": 1,
      "componentType": 5126,
      "count": 14901,
      "max": [
        0.9826211929321289,
        0.9928655624389648
      ],
      "min": [
        0.007134437561035156,
        0.007134437561035156
      ],
      "type": "VEC2"
    },
    {
      "bufferView": 1,
      "byteOffset": 119208,
      "componentType": 5126,
      "count": 14901,
      "max": [
        0.9826211929321289,
        0.9928655624389648
      ],
      "min": [
        0.007134437561035156,
        0.007134437561035156
      ],
      "type": "VEC2"
    },
    {
      "bufferView": 1,
      "byteOffset": 238416,
      "componentType": 5126,
      "count": 14901,
      "max": [
        0.9826211929321289,
        0.9928655624389648
      ],
      "min": [
        0.007134437561035156,
        0.007134437561035156
      ],
      "type": "VEC2"
    },
    {
      "bufferView": 1,
      "byteOffset": 357624,
      "componentType": 5126,
      "count": 14901,
      "max": [
        0.9826211929321289,
        0.9928655624389648
      ],
      "min": [
        0.007134437561035156,
        0.007134437561035156
      ],
      "type": "VEC2"
    },
    {
      "bufferView": 0,
      "componentType": 5125,
      "count": 25320,
      "type": "SCALAR"
    }
  ],
  "asset": {
    "extras": {
      "author": "eskethot (https://sketchfab.com/eskethot)",
      "license": "CC-BY-4.0 (http://creativecommons.org/licenses/by/4.0/)",
      "source": "https://sketchfab.com/3d-models/school-locker-e6bc50e4ee8e47ae92811b355a824ed0",
      "title": "School Locker"
    },
    "generator": "Sketchfab-14.38.0",
    "version": "2.0"
  },
  "bufferViews": [
    {
      "buffer": 0,
      "byteLength": 101280,
      "name": "floatBufferViews",
      "target": 34963
    },
    {
      "buffer": 0,
      "byteLength": 476832,
      "byteOffset": 101280,
      "byteStride": 8,
      "name": "floatBufferViews",
      "target": 34962
    },
    {
      "buffer": 0,
      "byteLength": 357624,
      "byteOffset": 578112,
      "byteStride": 12,
      "name": "floatBufferViews",
      "target": 34962
    },
    {
      "buffer": 0,
      "byteLength": 238416,
      "byteOffset": 935736,
      "byteStride": 16,
      "name": "floatBufferViews",
      "target": 34962
    }
  ],
  "buffers": [
    {
      "byteLength": 1174152,
      "uri": "scene.bin"
    }
  ],
  "images": [
    {
      "uri": "textures/Material_baseColor.png"
    },
    {
      "uri": "textures/Material_metallicRoughness.png"
    },
    {
      "uri": "textures/Material_normal.png"
    }
  ],
  "materials": [
    {
      "doubleSided": true,
      "name": "Material",
      "normalTexture": {
        "index": 2,
        "texCoord": 2
      },
      "pbrMetallicRoughness": {
        "baseColorTexture": {
          "index": 0
        },
        "metallicRoughnessTexture": {
          "index": 1,
          "texCoord": 1
        },
        "roughnessFactor": 0.736364
      }
    }
  ],
  "meshes": [
    {
      "name": "Object_0",
      "primitives": [
        {
          "attributes": {
            "NORMAL": 1,
            "POSITION": 0,
            "TANGENT": 2,
            "TEXCOORD_0": 3,
            "TEXCOORD_1": 4,
            "TEXCOORD_2": 5,
            "TEXCOORD_3": 6
          },
          "indices": 7,
          "material": 0,
          "mode": 4
        }
      ]
    }
  ],
  "nodes": [
    {
      "children": [
        1
      ],
      "matrix": [
        1.0,
        0.0,
        0.0,
        0.0,
        0.0,
        2.220446049250313e-16,
        -1.0,
        0.0,
        0.0,
        1.0,
        2.220446049250313e-16,
        0.0,
        0.0,
        0.0,
        0.0,
        1.0
      ],
      "name": "Sketchfab_model"
    },
    {
      "children": [
        2
      ],
      "name": "root"
    },
    {
      "children": [
        3
      ],
      "matrix": [
        1.0,
        0.0,
        0.0,
        0.0,
        0.0,
        2.220446049250313e-16,
        1.0,
        0.0,
        0.0,
        -1.0,
        2.220446049250313e-16,
        0.0,
        0.0,
        0.0,
        0.0,
        1.0
      ],
      "name": "GLTF_SceneRootNode"
    },
    {
      "children": [
        4
      ],
      "matrix": [
        0.6028314828872681,
        0.0,
        0.0,
        0.0,
        0.0,
        0.6028314828872681,
        0.0,
        0.0,
        0.0,
        0.0,
        0.6028314828872681,
        0.0,
        0.5503886938095093,
        2.7567427158355713,
        -0.061318397521972656,
        1.0
      ],
      "name": "Cube.006_0"
    },
    {
      "mesh": 0,
      "name": "Object_4"
    }
  ],
  "samplers": [
    {
      "magFilter": 9729,
      "minFilter": 9987,
      "wrapS": 10497,
      "wrapT": 10497
    }
  ],
  "scene": 0,
  "scenes": [
    {
      "name": "Sketchfab_Scene",
      "nodes": [
        0
      ]
    }
  ],
  "textures": [
    {
      "sampler": 0,
      "source": 0
    },
    {
      "sampler": 0,
      "source": 1
    },
    {
      "sampler": 0,
      "source": 2
    }
  ]
}
