{
  "accessors": [
    {
      "bufferView": 2,
      "componentType": 5126,
      "count": 1014,
      "max": [
        59.338890075683594,
        59.338890075683594,
        191.44769287109375
      ],
      "min": [
        -59.33889389038086,
        -68.54632568359375,
        -7.909414768218994
      ],
      "type": "VEC3"
    },
    {
      "bufferView": 2,
      "byteOffset": 12168,
      "componentType": 5126,
      "count": 1014,
      "max": [
        1.0,
        1.0,
        1.0
      ],
      "min": [
        -1.0,
        -1.0,
        -1.0
      ],
      "type": "VEC3"
    },
    {
      "bufferView": 3,
      "componentType": 5126,
      "count": 1014,
      "max": [
        0.9999995827674866,
        0.9999802708625793,
        0.9974311590194702,
        1.0
      ],
      "min": [
        -0.9999802112579346,
        -0.9999902248382568,
        -1.0,
        1.0
      ],
      "type": "VEC4"
    },
    {
      "bufferView": 1,
      "componentType": 5126,
      "count": 1014,
      "max": [
        0.9409120678901672,
        0.9738284945487976
      ],
      "min": [
        0.015373751521110535,
        0.021650470793247223
      ],
      "type": "VEC2"
    },
    {
      "bufferView": 0,
      "componentType": 5125,
      "count": 4032,
      "type": "SCALAR"
    },
    {
      "bufferView": 2,
      "byteOffset": 24336,
      "componentType": 5126,
      "count": 762,
      "max": [
        130.719482421875,
        96.650634765625,
        498.92437744140625
      ],
      "min": [
        -130.719482421875,
        -98.93267822265625,
        -32.41075897216797
      ],
      "type": "VEC3"
    },
    {
      "bufferView": 2,
      "byteOffset": 33480,
      "componentType": 5126,
      "count": 762,
      "max": [
        1.0,
        1.0,
        1.0
      ],
      "min": [
        -1.0,
        -1.0,
        -1.0
      ],
      "type": "VEC3"
    },
    {
      "bufferView": 3,
      "byteOffset": 16224,
      "componentType": 5126,
      "count": 762,
      "max": [
        1.0,
        0.9993056654930115,
        0.4270789921283722,
        1.0
      ],
      "min": [
        -1.0,
        -0.9997583627700806,
        -0.4270789325237274,
        1.0
      ],
      "type": "VEC4"
    },
    {
      "bufferView": 1,
      "byteOffset": 8112,
      "componentType": 5126,
      "count": 762,
      "max": [
        0.8539815545082092,
        0.9800238609313965
      ],
      "min": [
        0.019976194947957993,
        0.019976194947957993
      ],
      "type": "VEC2"
    },
    {
      "bufferView": 0,
      "byteOffset": 16128,
      "componentType": 5125,
      "count": 3804,
      "type": "SCALAR"
    },
    {
      "bufferView": 2,
      "byteOffset": 42624,
      "componentType": 5126,
      "count": 495,
      "max": [
        96.650634765625,
        96.650634765625,
        291.94879150390625
      ],
      "min": [
        -96.650634765625,
        -96.650634765625,
        -24.069883346557617
      ],
      "type": "VEC3"
    },
    {
      "bufferView": 2,
      "byteOffset": 48564,
      "componentType": 5126,
      "count": 495,
      "max": [
        1.0,
        1.0,
        1.0
      ],
      "min": [
        -1.0,
        -1.0,
        -1.0
      ],
      "type": "VEC3"
    },
    {
      "bufferView": 3,
      "byteOffset": 28416,
      "componentType": 5126,
      "count": 495,
      "max": [
        0.9999997019767761,
        0.9999971389770508,
        0.9428657293319702,
        1.0
      ],
      "min": [
        -0.9999992847442627,
        -1.0,
        -0.942866861820221,
        1.0
      ],
      "type": "VEC4"
    },
    {
      "bufferView": 1,
      "byteOffset": 14208,
      "componentType": 5126,
      "count": 495,
      "max": [
        0.9775952100753784,
        0.8760327100753784
      ],
      "min": [
        0.013899974524974823,
        0.02240479737520218
      ],
      "type": "VEC2"
    },
    {
      "bufferView": 0,
      "byteOffset": 31344,
      "componentType": 5125,
      "count": 2304,
      "type": "SCALAR"
    }
  ],
  "asset": {
    "extras": {
      "author": "Brandon Westlake (https://sketchfab.com/dr.badass2142)",
      "license": "SKETCHFAB Standard (https://sketchfab.com/licenses)",
      "source": "https://sketchfab.com/3d-models/bathroom-props-free-1fde4ea2f28c4b1c87753cbc3cdb6421",
      "title": "Bathroom Props (FREE)"
    },
    "generator": "Sketchfab-15.50.0",
    "version": "2.0"
  },
  "bufferViews": [
    {
      "buffer": 0,
      "byteLength": 40560,
      "name": "floatBufferViews",
      "target": 34963
    },
    {
      "buffer": 0,
      "byteLength": 18168,
      "byteOffset": 40560,
      "byteStride": 8,
      "name": "floatBufferViews",
      "target": 34962
    },
    {
      "buffer": 0,
      "byteLength": 54504,
      "byteOffset": 58728,
      "byteStride": 12,
      "name": "floatBufferViews",
      "target": 34962
    },
    {
      "buffer": 0,
      "byteLength": 36336,
      "byteOffset": 113232,
      "byteStride": 16,
      "name": "floatBufferViews",
      "target": 34962
    }
  ],
  "buffers": [
    {
      "byteLength": 149568,
      "uri": "scene.bin"
    }
  ],
  "images": [
    {
      "uri": "textures/Prescription_Bottle_baseColor.png"
    },
    {
      "uri": "textures/Prescription_Bottle_metallicRoughness.png"
    },
    {
      "uri": "textures/Prescription_Bottle_normal.png"
    },
    {
      "uri": "textures/Lotion_baseColor.png"
    },
    {
      "uri": "textures/Lotion_metallicRoughness.png"
    },
    {
      "uri": "textures/Lotion_normal.png"
    },
    {
      "uri": "textures/Common_Pill_Bottle_baseColor.png"
    },
    {
      "uri": "textures/Common_Pill_Bottle_metallicRoughness.png"
    },
    {
      "uri": "textures/Common_Pill_Bottle_normal.png"
    }
  ],
  "materials": [
    {
      "doubleSided": true,
      "name": "Prescription_Bottle",
      "normalTexture": {
        "index": 2
      },
      "occlusionTexture": {
        "index": 1
      },
      "pbrMetallicRoughness": {
        "baseColorTexture": {
          "index": 0
        },
        "metallicFactor": 0.2,
        "metallicRoughnessTexture": {
          "index": 1
        }
      }
    },
    {
      "doubleSided": true,
      "name": "Lotion",
      "normalTexture": {
        "index": 5
      },
      "occlusionTexture": {
        "index": 4
      },
      "pbrMetallicRoughness": {
        "baseColorTexture": {
          "index": 3
        },
        "metallicFactor": 0.0,
        "metallicRoughnessTexture": {
          "index": 4
        }
      }
    },
    {
      "doubleSided": true,
      "name": "Common_Pill_Bottle",
      "normalTexture": {
        "index": 8
      },
      "occlusionTexture": {
        "index": 7
      },
      "pbrMetallicRoughness": {
        "baseColorTexture": {
          "index": 6
        },
        "metallicFactor": 0.0,
        "metallicRoughnessTexture": {
          "index": 7
        }
      }
    }
  ],
  "meshes": [
    {
      "name": "Cylinder.005_Prescription Bottle_0",
      "primitives": [
        {
          "attributes": {
            "NORMAL": 1,
            "POSITION": 0,
            "TANGENT": 2,
            "TEXCOORD_0": 3
          },
          "indices": 4,
          "material": 0,
          "mode": 4
        }
      ]
    },
    {
      "name": "Cylinder.002_Lotion_0",
      "primitives": [
        {
          "attributes": {
            "NORMAL": 6,
            "POSITION": 5,
            "TANGENT": 7,
            "TEXCOORD_0": 8
          },
          "indices": 9,
          "material": 1,
          "mode": 4
        }
      ]
    },
    {
      "name": "Cylinder_Common Pill Bottle_0",
      "primitives": [
        {
          "attributes": {
            "NORMAL": 11,
            "POSITION": 10,
            "TANGENT": 12,
            "TEXCOORD_0": 13
          },
          "indices": 14,
          "material": 2,
          "mode": 4
        }
      ]
    }
  ],
  "nodes": [
    {
      "children": [
        1
      ],
      "matrix": [
        1.0,
        0.0,
        0.0,
        0.0,
        0.0,
        2.220446049250313e-16,
        -1.0,
        0.0,
        0.0,
        1.0,
        2.220446049250313e-16,
        0.0,
        0.0,
        0.0,
        0.0,
        1.0
      ],
      "name": "Sketchfab_model"
    },
    {
      "children": [
        2
      ],
      "matrix": [
        1.0,
        0.0,
        0.0,
        0.0,
        0.0,
        0.0,
        1.0,
        0.0,
        0.0,
        -1.0,
        0.0,
        0.0,
        0.0,
        0.0,
        0.0,
        1.0
      ],
      "name": "18f23e87d166406ca447304a14e6cc83.fbx"
    },
    {
      "children": [
        3,
        5,
        7
      ],
      "name": "RootNode"
    },
    {
      "children": [
        4
      ],
      "matrix": [
        1.0,
        0.0,
        0.0,
        0.0,
        0.0,
        -1.6292067939183141e-07,
        -0.9999999999999868,
        0.0,
        0.0,
        0.9999999999999868,
        -1.6292067939183141e-07,
        0.0,
        225.42654418945313,
        7.7527947425842285,
        0.0,
        1.0
      ],
      "name": "Cylinder.005"
    },
    {
      "mesh": 0,
      "name": "Cylinder.005_Prescription Bottle_0"
    },
    {
      "children": [
        6
      ],
      "matrix": [
        1.0,
        0.0,
        0.0,
        0.0,
        0.0,
        -1.6292067939183141e-07,
        -0.9999999999999868,
        0.0,
        0.0,
        0.9999999999999868,
        -1.6292067939183141e-07,
        0.0,
        0.6954641342163086,
        31.528030395507813,
        0.0,
        1.0
      ],
      "name": "Cylinder.002"
    },
    {
      "mesh": 1,
      "name": "Cylinder.002_Lotion_0"
    },
    {
      "children": [
        8
      ],
      "matrix": [
        -0.9999999999999241,
        1.2246465878873718e-16,
        3.8941437775530107e-07,
        0.0,
        3.8941437775529995e-07,
        7.549789982075339e-08,
        0.9999999999999213,
        0.0,
        -2.9277502948264183e-14,
        0.999999999999997,
        -7.549789970973109e-08,
        0.0,
        -264.980224609375,
        23.77523422241211,
        0.0,
        1.0
      ],
      "name": "Cylinder"
    },
    {
      "mesh": 2,
      "name": "Cylinder_Common Pill Bottle_0"
    }
  ],
  "samplers": [
    {
      "magFilter": 9729,
      "minFilter": 9987,
      "wrapS": 10497,
      "wrapT": 10497
    }
  ],
  "scene": 0,
  "scenes": [
    {
      "name": "Sketchfab_Scene",
      "nodes": [
        0
      ]
    }
  ],
  "textures": [
    {
      "sampler": 0,
      "source": 0
    },
    {
      "sampler": 0,
      "source": 1
    },
    {
      "sampler": 0,
      "source": 2
    },
    {
      "sampler": 0,
      "source": 3
    },
    {
      "sampler": 0,
      "source": 4
    },
    {
      "sampler": 0,
      "source": 5
    },
    {
      "sampler": 0,
      "source": 6
    },
    {
      "sampler": 0,
      "source": 7
    },
    {
      "sampler": 0,
      "source": 8
    }
  ]
}
